<svg width="32" height="32" viewBox="0 0 32 32" fill="none" xmlns="http://www.w3.org/2000/svg">
<path d="M2.99979 14C3.26498 13.9999 3.51929 13.8946 3.70679 13.707L11.9998 5.414L19.2928 12.707C19.4803 12.8945 19.7346 12.9998 19.9998 12.9998C20.2649 12.9998 20.5193 12.8945 20.7068 12.707L29.7068 3.707C29.8023 3.61475 29.8785 3.50441 29.9309 3.38241C29.9833 3.2604 30.0109 3.12918 30.012 2.9964C30.0132 2.86362 29.9879 2.73194 29.9376 2.60905C29.8873 2.48615 29.8131 2.3745 29.7192 2.28061C29.6253 2.18671 29.5136 2.11246 29.3907 2.06218C29.2678 2.0119 29.1362 1.9866 29.0034 1.98775C28.8706 1.9889 28.7394 2.01649 28.6174 2.0689C28.4954 2.12131 28.385 2.19749 28.2928 2.293L19.9998 10.586L12.7068 3.293C12.5193 3.10553 12.265 3.00021 11.9998 3.00021C11.7346 3.00021 11.4803 3.10553 11.2928 3.293L2.29279 12.293C2.15298 12.4329 2.05777 12.611 2.0192 12.805C1.98064 12.9989 2.00044 13.2 2.07611 13.3827C2.15178 13.5654 2.27992 13.7215 2.44433 13.8314C2.60874 13.9413 2.80204 14 2.99979 14Z" fill="black"/>
<path d="M21.5 21H18.5C18.2239 21 18 21.2239 18 21.5V29.5C18 29.7761 18.2239 30 18.5 30H21.5C21.7761 30 22 29.7761 22 29.5V21.5C22 21.2239 21.7761 21 21.5 21Z" fill="black"/>
<path d="M29.5 12H26.5C26.2239 12 26 12.2239 26 12.5V29.5C26 29.7761 26.2239 30 26.5 30H29.5C29.7761 30 30 29.7761 30 29.5V12.5C30 12.2239 29.7761 12 29.5 12Z" fill="black"/>
<path d="M13.5 12H10.5C10.2239 12 10 12.2239 10 12.5V29.5C10 29.7761 10.2239 30 10.5 30H13.5C13.7761 30 14 29.7761 14 29.5V12.5C14 12.2239 13.7761 12 13.5 12Z" fill="black"/>
<path d="M5.5 21H2.5C2.22386 21 2 21.2239 2 21.5V29.5C2 29.7761 2.22386 30 2.5 30H5.5C5.77614 30 6 29.7761 6 29.5V21.5C6 21.2239 5.77614 21 5.5 21Z" fill="black"/>
</svg>
