<svg width="30" height="30" viewBox="0 0 30 30" fill="none"
  xmlns="http://www.w3.org/2000/svg">
  <path d="M0.0673828 30L2.17702 22.2966C0.875747 20.0423 0.191002 17.4848 0.19207 14.8648C0.195356 6.6683 6.86623 0 15.0626 0C19.0406 0.00158437 22.7743 1.54982 25.5818 4.35967C28.3894 7.16951 29.9347 10.9045 29.9331 14.8766C29.9298 23.0731 23.2584 29.7422 15.0628 29.7422H15.0628H15.0567C12.5679 29.7412 10.1224 29.1171 7.95046 27.9328L0.0673828 30ZM8.31568 25.2415L8.76702 25.5093C10.6646 26.6351 12.8399 27.2306 15.0577 27.2315H15.0628C21.8751 27.2315 27.4197 21.6887 27.4224 14.8757C27.4237 11.5742 26.1393 8.46979 23.8058 6.13434C21.4722 3.7989 18.3689 2.51198 15.0677 2.51072C8.25011 2.51072 2.70552 8.05313 2.70279 14.8657C2.70184 17.2003 3.3553 19.474 4.59251 21.4413L4.88642 21.9087L3.63778 26.4682L8.31568 25.2415Z" fill="white"/>
  <path fill-rule="evenodd" clip-rule="evenodd" d="M11.3462 8.65047C11.0446 7.92616 10.7383 8.02415 10.5102 8.01281C10.2937 8.00203 10.0458 7.99976 9.79807 7.99976C9.55037 7.99976 9.14785 8.09271 8.80726 8.46455C8.46668 8.8364 7.50684 9.73505 7.50684 11.5633C7.50684 13.3915 8.83822 15.1578 9.02401 15.4057C9.20978 15.6536 11.644 19.4055 15.3713 21.0144C16.2578 21.3971 16.9499 21.6256 17.4895 21.7969C18.3796 22.0795 19.1896 22.0396 19.8298 21.944C20.5437 21.8374 22.0281 21.0454 22.3378 20.1778C22.6474 19.3101 22.6474 18.5664 22.5545 18.4115C22.4617 18.2566 22.2139 18.1636 21.8424 17.9776C21.4708 17.7917 19.6441 16.8931 19.3034 16.7692C18.9629 16.6452 18.7152 16.5832 18.4675 16.9551C18.2198 17.3269 17.5077 18.1636 17.291 18.4115C17.0743 18.6594 16.8575 18.6904 16.486 18.5044C16.1144 18.3185 14.9172 17.9263 13.498 16.6608C12.3934 15.676 11.6477 14.4595 11.4309 14.0876C11.2142 13.7158 11.4079 13.5147 11.5939 13.3296C11.761 13.1632 11.9654 12.8957 12.1512 12.6788C12.337 12.4619 12.3989 12.307 12.5228 12.0591C12.6466 11.8112 12.5847 11.5943 12.4918 11.4083C12.3989 11.2224 11.6558 9.39416 11.3462 8.65047Z" fill="white"/>
</svg>
