<svg width="12" height="8" viewBox="0 0 12 8" fill="none"
  xmlns="http://www.w3.org/2000/svg">
  <path d="M10.3539 0.146009C10.3075 0.0994455 10.2523 0.0625027 10.1916 0.0372963C10.1308 0.0120898 10.0657 -0.00088501 9.99992 -0.00088501C9.93415 -0.00088501 9.86903 0.0120898 9.80828 0.0372963C9.74754 0.0625027 9.69236 0.0994455 9.64592 0.146009L5.99992 3.79301L2.35392 0.146009C2.30747 0.0994455 2.2523 0.0625027 2.19155 0.0372963C2.13081 0.0120898 2.06568 -0.00088501 1.99992 -0.00088501C1.93415 -0.00088501 1.86903 0.0120898 1.80828 0.0372963C1.74754 0.0625027 1.69236 0.0994455 1.64592 0.146009L0.145917 1.64601C0.099354 1.69245 0.0624111 1.74763 0.0372047 1.80838C0.0119982 1.86912 -0.000976562 1.93424 -0.000976562 2.00001C-0.000976562 2.06578 0.0119982 2.1309 0.0372047 2.19164C0.0624111 2.25239 0.099354 2.30756 0.145917 2.35401L5.64592 7.85401C5.69236 7.90057 5.74754 7.93751 5.80828 7.96272C5.86903 7.98793 5.93415 8.0009 5.99992 8.0009C6.06568 8.0009 6.13081 7.98793 6.19155 7.96272C6.2523 7.93751 6.30747 7.90057 6.35392 7.85401L11.8539 2.35401C11.9005 2.30756 11.9374 2.25239 11.9626 2.19164C11.9878 2.1309 12.0008 2.06578 12.0008 2.00001C12.0008 1.93424 11.9878 1.86912 11.9626 1.80838C11.9374 1.74763 11.9005 1.69245 11.8539 1.64601L10.3539 0.146009Z" fill="#1E1E1E"/>
</svg>
